<svg xmlns="http://www.w3.org/2000/svg" width="20" height="21" viewBox="0 0 20 21">
    <path fill="#FFF" fill-rule="nonzero" d="M18.633 20.5c.13 0 .247-.052.351-.156l.899-.86a.571.571 0 0 0 .117-.351c0-.13-.04-.235-.117-.313l-4.766-4.765a.422.422 0 0 0-.312-.117h-.547a8.392 8.392 0 0 0 1.465-2.461 7.856 7.856 0 0 0 .527-2.852c0-1.484-.365-2.845-1.094-4.082a8.209 8.209 0 0 0-2.949-2.95C10.97.866 9.609.5 8.125.5S5.28.865 4.043 1.594a8.209 8.209 0 0 0-2.95 2.949C.366 5.78 0 7.141 0 8.625s.365 2.845 1.094 4.082a8.209 8.209 0 0 0 2.949 2.95c1.237.728 2.598 1.093 4.082 1.093.99 0 1.94-.176 2.852-.527a8.392 8.392 0 0 0 2.46-1.465v.547c0 .104.04.208.118.312l4.765 4.727a.371.371 0 0 0 .313.156zM8.125 14.875c-1.12 0-2.161-.28-3.125-.84a6.206 6.206 0 0 1-2.285-2.285 6.114 6.114 0 0 1-.84-3.125c0-1.12.28-2.161.84-3.125A6.206 6.206 0 0 1 5 3.215a6.114 6.114 0 0 1 3.125-.84c1.12 0 2.161.28 3.125.84A6.206 6.206 0 0 1 13.535 5.5c.56.964.84 2.005.84 3.125s-.28 2.161-.84 3.125a6.206 6.206 0 0 1-2.285 2.285c-.964.56-2.005.84-3.125.84z"/>
</svg>
